<?xml version="1.0" encoding="utf-8"?>
<!-- Generator: Adobe Illustrator 23.0.1, SVG Export Plug-In . SVG Version: 6.00 Build 0)  -->
<svg version="1.1" id="Logo" xmlns="http://www.w3.org/2000/svg" xmlns:xlink="http://www.w3.org/1999/xlink" x="0px" y="0px"
	 viewBox="0 0 930.08 460.51" style="enable-background:new 0 0 930.08 460.51;" xml:space="preserve">
<style type="text/css">
	.st0{fill:#3C2869;}
	.st1{opacity:0.55;fill:#3C2869;}
</style>
<g>
</g>
<g>
	<polygon class="st0" points="265.35,132.19 209.35,285.94 209.39,285.94 237.33,285.94 237.37,285.94 293.33,132.19 	"/>
	<path class="st0" d="M563.69,266.45c-27.78,0-33.81-1.88-33.81-5.57c0-2.92,2.47-3.75,13.22-3.75c0,0,9.49,0.07,16.29,0.07
		c26.76,0,42.64-18.8,42.64-44.29c0-0.03,0-0.06,0-0.09c0-0.04,0-0.08,0-0.13c0-8.07-1.91-15.01-5.26-20.77h0h15.66v-20.14h-55.92v0
		c-0.04,0-0.07,0-0.11,0c-0.08,0-0.15,0.01-0.23,0.01c-24.85,0.17-45.17,14.5-45.17,40.9c0,0.04,0,0.09,0,0.13c0,0.03,0,0.06,0,0.09
		c0,11.29,3.68,34.98,23.3,34.98c-9.55,0-23.56,1.41-25.53,13.18c-2.24,13.43,7.38,20.38,26.58,24.87h-18.04
		c0,0-10.6,3.85-10.6,18.42c0,25.94,23.77,33.62,52.9,33.62c24.84,0,53.76-7.92,53.76-37.26
		C613.37,276.22,594.95,266.45,563.69,266.45z M535.91,207.96c0-9.67,7.84-17.5,17.5-17.5h6.21c11.68,0,17.5,7.84,17.5,17.5v8.45
		c0,14.72-7.84,20.14-17.5,20.14h-6.21c-9.67,0-17.5-6.97-17.5-20.14V207.96z M558.55,316.78c-10.49,0-28.06-2.27-28.06-15.42
		c0-11.15,10.07-13.71,10.07-13.71h20.99c11.21,0,26.56,0,26.56,13.71C588.1,316.78,569.25,316.78,558.55,316.78z"/>
	<path class="st0" d="M653.17,132.19h-26.83v120.94c0,24.12,10.6,32.81,31.73,32.81h14.58v-23.99h-19.49V132.19z"/>
	<path class="st0" d="M704.17,236.19h4.6h67.92v-11.82c0-7.52-1.01-14.64-3.02-21.19c-2.03-6.63-5.09-12.5-9.09-17.44
		c-4.05-5-9.23-8.99-15.38-11.87c-6.14-2.87-13.4-4.32-21.57-4.32c-7.9,0-15.01,1.53-21.14,4.56c-6.1,3.01-11.37,7.2-15.67,12.45
		c-4.28,5.23-7.54,11.62-9.69,18.99c-2.11,7.25-3.18,15.22-3.18,23.68c0,8.59,1,16.57,2.96,23.69c2,7.26,5.11,13.62,9.25,18.88
		c4.17,5.32,9.45,9.54,15.68,12.56c6.23,3.02,13.56,4.55,21.8,4.55c6.06,0,11.93-0.92,17.43-2.74c5.51-1.82,10.54-4.46,14.95-7.82
		c4.45-3.41,8.13-7.59,10.93-12.44c2.82-4.89,4.47-10.51,4.91-16.72h-25.02c-0.69,6.36-3.02,10.87-7.13,13.73
		c-4.43,3.08-9.03,4.13-12.55,4.5c-3.02,0.32-9.33-0.34-12.17-1.3c-2.81-0.95-5.37-2.37-7.63-4.23c-2.2-1.82-3.97-4.08-5.26-6.72
		c-1.27-2.61-1.92-5.69-1.92-9.15v-5.71V236.19z M704.26,209.92c0-10.96,8.89-19.85,19.85-19.85h7.04
		c13.25,0,19.85,8.89,19.85,19.85v6.36h-46.74V209.92z"/>
	<path class="st0" d="M325.89,288.72c18.66,0,32.77-13.22,32.77-33.06v30.27h24.41V174.57H356.3v74.46c0,9.62-7.8,17.41-17.41,17.41
		h-6.51c-9.62,0-17.41-7.8-17.41-17.41v-74.46h-26.77v74.31C288.19,272.02,302.11,288.72,325.89,288.72z"/>
	<path class="st0" d="M457.59,171.79c-18.66,0-32.77,13.22-32.77,33.06v-30.27h-24.41v111.36h26.77v-74.46
		c0-9.62,7.8-17.41,17.41-17.41h6.51c9.62,0,17.41,7.8,17.41,17.41v74.46h26.77v-74.31C495.29,188.49,481.37,171.79,457.59,171.79z"
		/>
</g>
<polygon class="st1" points="181.37,132.19 237.36,285.94 237.33,285.94 209.38,285.94 209.35,285.94 153.39,132.19 "/>
</svg>
